<svg data-testid="unheart-svg" width="20" height="17" viewBox="0 0 20 17" fill="none" xmlns="http://www.w3.org/2000/svg">
<path fill-rule="evenodd" clip-rule="evenodd" d="M7.49023 0.851471C6.70898 0.603418 5.87985 0.545278 5.07165 0.681868C4.2679 0.807458 3.50567 1.12289 2.84821 1.60201C2.1905 2.08131 1.65661 2.71058 1.29086 3.43759C0.801947 4.39607 0.631125 5.4854 0.803195 6.54754C0.975147 7.60895 1.48058 8.58802 2.24621 9.3429L9.27407 16.583C9.36843 16.68 9.48129 16.7572 9.60598 16.8098C9.73067 16.8625 9.86466 16.8897 10 16.8897C10.1354 16.8897 10.2694 16.8625 10.3941 16.8098C10.5188 16.7572 10.6317 16.6799 10.7261 16.5829L17.7439 9.35657C18.5125 8.60106 19.0206 7.62037 19.1944 6.55667C19.3683 5.49192 19.1983 4.39944 18.709 3.43792L18.7085 3.43706C18.3371 2.71372 17.8012 2.08759 17.1438 1.60898C16.4865 1.13036 15.726 0.81261 14.9236 0.681249C14.1211 0.549888 13.299 0.608582 12.5234 0.852614C11.749 1.09623 11.0425 1.51778 10.4604 2.08347L9.99964 2.50486L9.56073 2.10522C8.97989 1.52889 8.27016 1.09911 7.49023 0.851471ZM5.34545 2.30899C5.89528 2.21588 6.45939 2.25534 6.9909 2.4241C7.52241 2.59286 8.00597 2.88605 8.40138 3.27928L8.42305 3.30083L10.0021 4.73857L11.5899 3.28665L11.6083 3.26875C12.0061 2.8816 12.4891 2.59314 13.0186 2.42656C13.548 2.25997 14.1092 2.21991 14.657 2.30958C15.2048 2.39925 15.7239 2.61615 16.1726 2.94287C16.6206 3.26907 16.986 3.69565 17.2395 4.18843C17.5689 4.83669 17.6832 5.57299 17.566 6.29063C17.4486 7.00907 17.1052 7.67138 16.5858 8.18136L16.5761 8.1907L10.0001 14.962L3.41934 8.18242L3.4061 8.16937C2.8892 7.66033 2.54798 6.99981 2.43196 6.28368C2.31595 5.56755 2.43119 4.83309 2.76094 4.18689L2.76461 4.1796C3.01241 3.68684 3.37422 3.26033 3.81997 2.93549C4.26572 2.61066 4.78255 2.39688 5.32753 2.31191L5.3348 2.3108L5.34545 2.30899Z" fill="white"/>
</svg>
