<svg data-testid="heart-svg" width="18" height="17" viewBox="0 0 18 17" fill="none" xmlns="http://www.w3.org/2000/svg">
<path d="M17.475 3.55698C17.1223 2.87016 16.6134 2.27565 15.9893 1.8212C15.3651 1.36675 14.643 1.06504 13.8811 0.940313C13.1192 0.815585 12.3386 0.871315 11.6021 1.10303C10.8656 1.33474 10.1938 1.73597 9.64048 2.27448L8.99998 2.86023L8.37973 2.29548C7.82775 1.74653 7.15272 1.33726 6.41074 1.10168C5.66877 0.86609 4.88128 0.811 4.11373 0.940982C3.35063 1.05996 2.62693 1.35931 2.00276 1.81416C1.37859 2.26902 0.871968 2.86625 0.52498 3.55623C0.0611608 4.46517 -0.100918 5.49827 0.0622681 6.50558C0.225455 7.51288 0.705414 8.44197 1.43248 9.15798L8.46223 16.4C8.53213 16.4719 8.61573 16.529 8.70809 16.568C8.80046 16.6071 8.89971 16.6272 8.99998 16.6272C9.10025 16.6272 9.1995 16.6071 9.29187 16.568C9.38423 16.529 9.46783 16.4719 9.53773 16.4L16.5577 9.17148C17.2878 8.45478 17.7703 7.52401 17.9352 6.51435C18.1002 5.5047 17.939 4.46875 17.475 3.55698Z" fill="white"/>
</svg>
