<svg xmlns="http://www.w3.org/2000/svg" viewBox="0 0 334.22 90.83"><defs><style>.cls-1{fill:#ef4642}</style></defs><g id="Layer_2" data-name="Layer 2"><g id="Layer_1-2" data-name="Layer 1"><path class="cls-1" d="M62.66 85.94C59 79 53.45 68.46 50 61.85c-1.68-3.09-3.45-6.18-5-9.21a1.91 1.91 0 0 1 .83-2.53c8-4.28 10.6-11.67 10.6-21.6 0-15.5-6.92-25.2-29-25.2H1.91A1.9 1.9 0 0 0 0 5.22v81.6a1.9 1.9 0 0 0 1.91 1.91h11.57a1.9 1.9 0 0 0 1.91-1.91v-31a1.9 1.9 0 0 1 1.91-1.91h9.83A1.9 1.9 0 0 1 28.84 55L45 87.67a1.9 1.9 0 0 0 1.71 1.06H61a1.91 1.91 0 0 0 1.66-2.79zM28.87 39.11H17.3a1.91 1.91 0 0 1-1.91-1.91V20.05a1.9 1.9 0 0 1 1.91-1.91h11.57c9.82 0 11.26 4.57 11.26 10.37s-1.44 10.6-11.26 10.6zM83.13 0a9.1 9.1 0 0 0-6.69 2.73 9.11 9.11 0 0 0-2.74 6.7 9.09 9.09 0 0 0 2.74 6.7 9.56 9.56 0 0 0 13.38 0 9.09 9.09 0 0 0 2.74-6.7 9.11 9.11 0 0 0-2.74-6.7A9.1 9.1 0 0 0 83.13 0zM89 28.76H70.86a1.91 1.91 0 0 0-1.86 1.9V42.5a1.92 1.92 0 0 0 1.91 1.91h4.47v42.41a1.9 1.9 0 0 0 1.91 1.91H89a1.9 1.9 0 0 0 1.91-1.91V30.66a1.9 1.9 0 0 0-1.91-1.9zM332.31 3.42H321a2.6 2.6 0 0 0-2.47 1.78l-20.18 61a1.91 1.91 0 0 1-3.62 0l-20.21-61a2.6 2.6 0 0 0-2.47-1.78H204a1.9 1.9 0 0 0-1.9 1.9v9.5a1.9 1.9 0 0 0 1.9 1.9h21.14a1.91 1.91 0 0 1 1.9 1.91V86.8a1.91 1.91 0 0 0 1.96 1.91h12.5a1.91 1.91 0 0 0 1.91-1.91V18.63a1.92 1.92 0 0 1 1.88-1.91h14.87A1.92 1.92 0 0 1 262 18l23.85 69a2.6 2.6 0 0 0 2.46 1.75h16.85a1.92 1.92 0 0 0 1.81-1.3l27.15-81.52a1.91 1.91 0 0 0-1.81-2.51zM138.58 51.55a1.9 1.9 0 0 1 .26-2.3L155.36 32a1.9 1.9 0 0 0-1.36-3.24h-13.3a1.9 1.9 0 0 0-1.44.66l-13.1 15.14a1.9 1.9 0 0 1-3.35-1.24v-38a1.91 1.91 0 0 0-1.91-1.9h-11.79a1.91 1.91 0 0 0-1.91 1.9v81.5a1.91 1.91 0 0 0 1.91 1.91h11.79a1.91 1.91 0 0 0 1.91-1.91v-21a1.89 1.89 0 0 1 .52-1.31l1.58-1.68a1.92 1.92 0 0 1 3.09.44l12.56 24.4a1.9 1.9 0 0 0 1.69 1h15.16a1.91 1.91 0 0 0 1.64-2.88zM191.48 52l-1.26-.49c-6.93-2.74-10-4.28-9.88-7.56s2.6-5.42 6.64-5.42c3 0 6.44 1.34 11.44 4.49a2.76 2.76 0 0 0 3.5-.46l4.38-6.11a2.72 2.72 0 0 0 .7-2.15 2.67 2.67 0 0 0-1-1.91A32 32 0 0 0 186.7 26c-11.75.18-20.6 8.11-20.6 18.44 0 12.23 9.88 16.76 19.15 20.06 7.71 2.59 10.28 4.11 10.28 8 0 3.61-3 5.77-8.12 5.77-4.39 0-9.41-2.16-13.43-5.76a2.75 2.75 0 0 0-3.81.15l-4.41 6a2.79 2.79 0 0 0-.77 2 2.68 2.68 0 0 0 .88 1.89 31.9 31.9 0 0 0 21.37 8.3c10.89 0 22.62-6.18 22.62-19.74 0-12-8.11-15.11-18.38-19.11z"/></g></g></svg>
